v 0.082266 -0.000079 0.996748
v 0.072065 -0.041829 0.996748
v -0.082266 0.000094 0.996748
v -0.072065 -0.041637 0.996748
v -0.000000 -0.082500 0.996748
v 0.049512 -0.066698 0.996748
v -0.049512 -0.066698 0.996748
v 0.049512 0.066698 0.996748
v -0.049512 0.066698 0.996748
v 0.000000 0.082500 0.996748
v 0.072065 0.041637 0.996748
v -0.072065 0.041830 0.996748
v -0.072065 -0.041637 -0.002278
v -0.049512 -0.066698 -0.002278
v -0.000000 -0.082500 -0.002278
v 0.049512 -0.066698 -0.002278
v 0.072065 -0.041830 -0.002278
v -0.082500 0.000094 -0.002278
v 0.082500 -0.000099 -0.002278
v -0.049512 0.066698 -0.002278
v -0.072065 0.041830 -0.002278
v 0.049512 0.066698 -0.002278
v 0.000000 0.082500 -0.002278
v 0.072065 0.041637 -0.002278
v 0.000000 0.041733 -0.002278
v 0.000000 -0.000003 -0.002278
v 0.000000 -0.041733 -0.002278
v -0.050445 0.029725 0.997722
v 0.050445 0.029591 0.997722
v 0.000000 0.058190 0.997722
v -0.034658 0.047044 0.997722
v 0.034658 0.047044 0.997722
v -0.033630 -0.046333 0.997722
v 0.033630 -0.046333 0.997722
v -0.000000 -0.057310 0.997722
v -0.050445 -0.028701 0.997722
v -0.057795 0.000511 0.997722
v 0.050445 -0.028836 0.997722
v 0.057795 0.000376 0.997722
v -0.072065 -0.041637 0.497235
v -0.049512 -0.066698 0.497235
v -0.000000 -0.082500 0.497235
v 0.049512 -0.066698 0.497235
v 0.072065 -0.041829 0.497235
v -0.082500 0.000094 0.497235
v 0.082500 -0.000099 0.497235
v -0.049512 0.066698 0.497235
v -0.072065 0.041830 0.497235
v 0.049512 0.066698 0.497235
v 0.000000 0.082500 0.497235
v 0.072065 0.041637 0.497235
v -0.072065 -0.041637 0.746992
v -0.049512 -0.066698 0.746992
v -0.000000 -0.082500 0.746992
v 0.049512 -0.066698 0.746992
v 0.072065 -0.041829 0.746992
v -0.082500 0.000094 0.746992
v 0.082500 -0.000099 0.746992
v -0.049512 0.066698 0.746992
v -0.072065 0.041830 0.746992
v 0.049512 0.066698 0.746992
v 0.000000 0.082500 0.746992
v 0.072065 0.041637 0.746992
v -0.072065 -0.041637 0.622114
v -0.049512 -0.066698 0.622114
v -0.000000 -0.082500 0.622114
v 0.049512 -0.066698 0.622114
v 0.072065 -0.041829 0.622114
v -0.082500 0.000094 0.622114
v 0.082500 -0.000099 0.622114
v -0.049512 0.066698 0.622114
v -0.072065 0.041830 0.622114
v 0.049512 0.066698 0.622114
v 0.000000 0.082500 0.622114
v 0.072065 0.041637 0.622114
v -0.072065 -0.041637 0.871870
v -0.049512 -0.066698 0.871870
v -0.000000 -0.082500 0.871870
v 0.049512 -0.066698 0.871870
v 0.072065 -0.041829 0.871870
v -0.082266 0.000094 0.871870
v 0.082266 -0.000099 0.871870
v -0.049512 0.066698 0.871870
v -0.072065 0.041830 0.871870
v 0.049512 0.066698 0.871870
v 0.000000 0.082500 0.871870
v 0.072065 0.041637 0.871870
v -0.072065 -0.041637 0.247479
v -0.049512 -0.066698 0.247479
v -0.000000 -0.082500 0.247479
v 0.049512 -0.066698 0.247479
v 0.072065 -0.041830 0.247479
v -0.082500 0.000094 0.247479
v 0.082500 -0.000099 0.247479
v -0.049512 0.066698 0.247479
v -0.072065 0.041830 0.247479
v 0.049512 0.066698 0.247479
v 0.000000 0.082500 0.247479
v 0.072065 0.041637 0.247479
v -0.072065 -0.041637 0.372357
v -0.049512 -0.066698 0.372357
v -0.000000 -0.082500 0.372357
v 0.049512 -0.066698 0.372357
v 0.072065 -0.041830 0.372357
v -0.082500 0.000094 0.372357
v 0.082500 -0.000099 0.372357
v -0.049512 0.066698 0.372357
v -0.072065 0.041830 0.372357
v 0.049512 0.066698 0.372357
v 0.000000 0.082500 0.372357
v 0.072065 0.041637 0.372357
v -0.072065 -0.041637 0.122600
v -0.049512 -0.066698 0.122600
v -0.000000 -0.082500 0.122600
v 0.049512 -0.066698 0.122600
v 0.072065 -0.041830 0.122600
v -0.082500 0.000094 0.122600
v 0.082500 -0.000099 0.122600
v -0.049512 0.066698 0.122600
v -0.072065 0.041830 0.122600
v 0.049512 0.066698 0.122600
v 0.000000 0.082500 0.122600
v 0.072065 0.041637 0.122600
v 0.000106 -0.000072 0.248452
v 0.000142 -0.000155 0.248452
v -0.000106 -0.000072 0.248452
v -0.000142 -0.000155 0.248452
v 0.000071 0.000011 0.248452
v 0.000000 0.000011 0.248452
v -0.000071 0.000011 0.248452
v 0.000106 -0.000238 0.248452
v -0.000106 -0.000238 0.248452
v 0.000071 -0.000321 0.248452
v -0.000071 -0.000321 0.248452
v -0.000000 -0.000321 0.248452
v 0.000000 -0.000072 0.248452
v 0.000000 -0.000155 0.248452
v 0.000000 -0.000238 0.248452
v 0.050445 0.029591 0.746717
v 0.054481 0.000376 0.746717
v -0.054481 0.000511 0.746717
v -0.050445 0.029725 0.746717
v 0.034658 0.047044 0.746717
v -0.034658 0.047044 0.746717
v 0.000000 0.058190 0.746717
v 0.050445 -0.028836 0.746717
v -0.050445 -0.028701 0.746717
v 0.033630 -0.046333 0.746717
v -0.000000 -0.057310 0.746717
v -0.033630 -0.046333 0.746717
v 0.050445 0.029591 0.497584
v 0.054481 0.000376 0.497584
v -0.054481 0.000511 0.497584
v -0.050445 0.029725 0.497584
v 0.034658 0.047044 0.497584
v -0.034658 0.047044 0.497584
v 0.000000 0.058190 0.497584
v 0.050445 -0.028836 0.497584
v -0.050445 -0.028701 0.497584
v 0.033630 -0.046333 0.497584
v -0.000000 -0.057310 0.497584
v -0.033630 -0.046333 0.497584
vn -0.039914 0.009756 0.999155
vn -0.039438 0.009921 0.999173
vn -0.029841 0.027063 0.999188
vn -0.029685 0.027059 0.999193
vn -0.012726 0.039873 0.999124
vn -0.012867 0.040011 0.999116
vn 0.012726 0.039873 0.999124
vn 0.012867 0.040011 0.999116
vn 0.029811 0.026964 0.999192
vn 0.029967 0.026968 0.999187
vn 0.039929 0.009765 0.999155
vn 0.039461 0.009927 0.999172
vn 0.039563 -0.009953 0.999167
vn 0.039232 -0.009586 0.999184
vn 0.029122 -0.026411 0.999227
vn 0.027439 -0.026370 0.999276
vn 0.012206 -0.038246 0.999194
vn 0.012604 -0.038615 0.999175
vn -0.012604 -0.038615 0.999175
vn -0.012206 -0.038246 0.999194
vn -0.029247 -0.026320 0.999226
vn -0.027556 -0.026280 0.999275
vn -0.039252 -0.009595 0.999183
vn -0.039579 -0.009957 0.999167
vn 0.902297 0.385620 0.192763
vn 0.706005 0.673307 0.219578
vn 0.723666 0.690150 -0.000000
vn -0.303215 0.928947 0.212410
vn 0.000000 0.974821 0.222990
vn -0.310296 0.950640 -0.000000
vn 0.303216 0.928947 0.212410
vn 0.310296 0.950640 -0.000000
vn -0.703392 0.675990 0.219721
vn -0.901615 0.387119 0.192948
vn -0.721012 0.692923 -0.000000
vn 0.968303 0.133774 0.210936
vn 0.901752 0.385439 0.195655
vn 0.990591 0.136853 -0.000000
vn -0.901715 0.385423 0.195855
vn -0.968288 0.133772 0.211005
vn -0.990591 0.136853 -0.000000
vn 0.720244 -0.656542 0.224056
vn 0.900682 -0.386714 0.198051
vn 0.739033 -0.673669 0.000000
vn 0.000000 -0.973799 0.227410
vn -0.298858 -0.929313 0.216936
vn -0.306149 -0.951984 0.000000
vn 0.298858 -0.929313 0.216936
vn -0.000005 -0.973799 0.227410
vn 0.306148 -0.951984 0.000000
vn -0.901363 -0.385221 0.197864
vn -0.722803 -0.653781 0.223890
vn -0.741630 -0.670809 0.000000
vn 0.901402 -0.385244 0.197638
vn 0.968159 -0.133738 0.211620
vn 0.990594 -0.136837 0.000000
vn -0.968174 -0.133740 0.211551
vn -0.901439 -0.385260 0.197438
vn -0.990594 -0.136837 0.000000
vn 0.969701 0.243959 0.012801
vn -0.969701 0.243959 0.012801
vn 0.969708 -0.243933 0.012801
vn -0.969708 -0.243932 0.012801
vn 0.000000 0.000000 1.000000
vn 0.970136 0.242560 -0.000000
vn -0.970136 0.242560 -0.000000
vn 0.743323 0.668932 -0.000000
vn -0.304048 0.952657 -0.000000
vn 0.304048 0.952657 -0.000000
vn -0.740749 0.671782 -0.000000
vn 0.970130 -0.242587 0.000000
vn -0.970130 -0.242587 0.000000
vn 0.740749 -0.671782 0.000000
vn 0.740748 -0.671783 0.000000
vn -0.304048 -0.952657 0.000000
vn 0.304048 -0.952657 0.000000
vn -0.743324 -0.668932 0.000000
vn 0.740748 -0.671782 0.000000
vn 0.970135 0.242560 0.001814
vn 0.971402 0.237441 -0.000000
vn 0.971402 0.237441 -0.000038
vn 0.971376 0.237547 -0.000000
vn -0.971402 0.237441 -0.000000
vn -0.970135 0.242560 0.001814
vn 0.971422 -0.237361 0.000038
vn 0.971396 -0.237467 0.000000
vn 0.970128 -0.242587 0.001814
vn -0.970128 -0.242587 0.001814
vn -0.971396 -0.237467 0.000000
vn 0.000000 0.000000 -1.000000
f 3//1 37//1 12//1
f 37//2 28//2 12//2
f 9//3 12//3 28//3
f 9//4 28//4 31//4
f 9//5 31//5 10//5
f 31//6 30//6 10//6
f 8//7 10//7 32//7
f 10//8 30//8 32//8
f 8//9 32//9 29//9
f 8//10 29//10 11//10
f 1//11 11//11 39//11
f 11//12 29//12 39//12
f 1//13 39//13 38//13
f 1//14 38//14 2//14
f 2//15 38//15 6//15
f 38//16 34//16 6//16
f 5//17 6//17 34//17
f 5//18 34//18 35//18
f 5//19 35//19 33//19
f 5//20 33//20 7//20
f 4//21 7//21 36//21
f 7//22 33//22 36//22
f 3//23 4//23 36//23
f 3//24 36//24 37//24
f 162//25 134//25 132//25
f 162//26 132//26 159//26
f 150//27 162//27 159//27
f 150//27 159//27 147//27
f 160//28 133//28 161//28
f 133//29 135//29 161//29
f 148//30 160//30 161//30
f 148//30 161//30 149//30
f 161//29 135//29 134//29
f 161//31 134//31 162//31
f 149//32 161//32 162//32
f 149//32 162//32 150//32
f 158//33 131//33 160//33
f 131//34 133//34 160//34
f 146//35 158//35 160//35
f 146//35 160//35 148//35
f 159//36 132//36 153//36
f 132//37 127//37 153//37
f 147//38 159//38 153//38
f 147//38 153//38 141//38
f 152//39 125//39 131//39
f 152//40 131//40 158//40
f 140//41 152//41 158//41
f 140//41 158//41 146//41
f 154//42 126//42 156//42
f 126//43 130//43 156//43
f 142//44 154//44 156//44
f 142//44 156//44 144//44
f 157//45 129//45 128//45
f 157//46 128//46 155//46
f 145//47 157//47 155//47
f 145//47 155//47 143//47
f 156//48 130//48 157//48
f 130//49 129//49 157//49
f 144//50 156//50 157//50
f 144//50 157//50 145//50
f 155//51 128//51 124//51
f 155//52 124//52 151//52
f 143//53 155//53 151//53
f 143//53 151//53 139//53
f 153//54 127//54 126//54
f 153//55 126//55 154//55
f 141//56 153//56 154//56
f 141//56 154//56 142//56
f 151//57 124//57 152//57
f 124//58 125//58 152//58
f 139//59 151//59 152//59
f 139//59 152//59 140//59
f 33//27 150//27 147//27
f 33//27 147//27 36//27
f 34//30 148//30 149//30
f 34//30 149//30 35//30
f 35//32 149//32 150//32
f 35//32 150//32 33//32
f 38//35 146//35 148//35
f 38//35 148//35 34//35
f 36//38 147//38 141//38
f 36//60 141//60 37//60
f 39//61 140//61 38//61
f 140//41 146//41 38//41
f 28//44 142//44 144//44
f 28//44 144//44 31//44
f 30//47 145//47 143//47
f 30//47 143//47 32//47
f 31//50 144//50 145//50
f 31//50 145//50 30//50
f 32//53 143//53 139//53
f 32//53 139//53 29//53
f 37//62 141//62 28//62
f 141//56 142//56 28//56
f 29//59 139//59 140//59
f 29//63 140//63 39//63
f 131//64 138//64 133//64
f 138//64 135//64 133//64
f 132//64 134//64 138//64
f 134//64 135//64 138//64
f 131//64 125//64 137//64
f 131//64 137//64 138//64
f 127//64 132//64 137//64
f 132//64 138//64 137//64
f 124//64 136//64 137//64
f 124//64 137//64 125//64
f 126//64 127//64 137//64
f 126//64 137//64 136//64
f 124//64 128//64 136//64
f 128//64 129//64 136//64
f 126//64 136//64 130//64
f 136//64 129//64 130//64
f 118//65 19//65 24//65
f 118//65 24//65 123//65
f 94//65 118//65 123//65
f 94//65 123//65 99//65
f 120//66 21//66 18//66
f 120//66 18//66 117//66
f 96//66 120//66 117//66
f 96//66 117//66 93//66
f 123//67 24//67 22//67
f 123//67 22//67 121//67
f 99//67 123//67 121//67
f 99//67 121//67 97//67
f 122//68 23//68 20//68
f 122//68 20//68 119//68
f 98//68 122//68 119//68
f 98//68 119//68 95//68
f 121//69 22//69 23//69
f 121//69 23//69 122//69
f 97//69 121//69 122//69
f 97//69 122//69 98//69
f 119//70 20//70 21//70
f 119//70 21//70 120//70
f 95//70 119//70 120//70
f 95//70 120//70 96//70
f 118//71 94//71 92//71
f 118//71 92//71 116//71
f 19//71 118//71 116//71
f 19//71 116//71 17//71
f 117//72 18//72 13//72
f 117//72 13//72 112//72
f 93//72 117//72 112//72
f 93//72 112//72 88//72
f 115//73 16//73 17//73
f 115//73 17//73 116//73
f 91//73 115//73 116//73
f 91//74 116//74 92//74
f 113//75 14//75 15//75
f 113//75 15//75 114//75
f 89//75 113//75 114//75
f 89//75 114//75 90//75
f 114//76 15//76 16//76
f 114//76 16//76 115//76
f 90//76 114//76 115//76
f 90//76 115//76 91//76
f 112//77 13//77 14//77
f 112//77 14//77 113//77
f 88//77 112//77 113//77
f 88//77 113//77 89//77
f 106//65 94//65 99//65
f 106//65 99//65 111//65
f 46//65 106//65 111//65
f 46//65 111//65 51//65
f 108//66 96//66 93//66
f 108//66 93//66 105//66
f 48//66 108//66 105//66
f 48//66 105//66 45//66
f 111//67 99//67 97//67
f 111//67 97//67 109//67
f 51//67 111//67 109//67
f 51//67 109//67 49//67
f 110//68 98//68 95//68
f 110//68 95//68 107//68
f 50//68 110//68 107//68
f 50//68 107//68 47//68
f 109//69 97//69 98//69
f 109//69 98//69 110//69
f 49//69 109//69 110//69
f 49//69 110//69 50//69
f 107//70 95//70 96//70
f 107//70 96//70 108//70
f 47//70 107//70 108//70
f 47//70 108//70 48//70
f 106//71 46//71 44//71
f 106//71 44//71 104//71
f 94//71 106//71 104//71
f 94//71 104//71 92//71
f 105//72 93//72 88//72
f 105//72 88//72 100//72
f 45//72 105//72 100//72
f 45//72 100//72 40//72
f 103//78 91//78 92//78
f 103//73 92//73 104//73
f 43//73 103//73 104//73
f 43//73 104//73 44//73
f 101//75 89//75 90//75
f 101//75 90//75 102//75
f 41//75 101//75 102//75
f 41//75 102//75 42//75
f 102//76 90//76 91//76
f 102//76 91//76 103//76
f 42//76 102//76 103//76
f 42//76 103//76 43//76
f 100//77 88//77 89//77
f 100//77 89//77 101//77
f 40//77 100//77 101//77
f 40//77 101//77 41//77
f 82//79 58//79 63//79
f 82//80 63//80 87//80
f 1//81 82//81 87//81
f 1//82 87//82 11//82
f 84//83 60//83 81//83
f 60//84 57//84 81//84
f 12//83 84//83 81//83
f 12//83 81//83 3//83
f 87//67 63//67 61//67
f 87//67 61//67 85//67
f 11//67 87//67 85//67
f 11//67 85//67 8//67
f 86//68 62//68 59//68
f 86//68 59//68 83//68
f 10//68 86//68 83//68
f 10//68 83//68 9//68
f 85//69 61//69 62//69
f 85//69 62//69 86//69
f 8//69 85//69 86//69
f 8//69 86//69 10//69
f 83//70 59//70 60//70
f 83//70 60//70 84//70
f 9//70 83//70 84//70
f 9//70 84//70 12//70
f 82//85 1//85 2//85
f 82//86 2//86 80//86
f 58//87 82//87 56//87
f 82//86 80//86 56//86
f 81//88 57//88 52//88
f 81//89 52//89 76//89
f 3//89 81//89 76//89
f 3//89 76//89 4//89
f 79//73 55//73 56//73
f 79//73 56//73 80//73
f 6//73 79//73 80//73
f 6//73 80//73 2//73
f 77//75 53//75 54//75
f 77//75 54//75 78//75
f 7//75 77//75 78//75
f 7//75 78//75 5//75
f 78//76 54//76 55//76
f 78//76 55//76 79//76
f 5//76 78//76 79//76
f 5//76 79//76 6//76
f 76//77 52//77 53//77
f 76//77 53//77 77//77
f 4//77 76//77 77//77
f 4//77 77//77 7//77
f 70//65 46//65 51//65
f 70//65 51//65 75//65
f 58//65 70//65 75//65
f 58//65 75//65 63//65
f 72//66 48//66 45//66
f 72//66 45//66 69//66
f 60//66 72//66 69//66
f 60//66 69//66 57//66
f 75//67 51//67 49//67
f 75//67 49//67 73//67
f 63//67 75//67 73//67
f 63//67 73//67 61//67
f 74//68 50//68 47//68
f 74//68 47//68 71//68
f 62//68 74//68 71//68
f 62//68 71//68 59//68
f 73//69 49//69 50//69
f 73//69 50//69 74//69
f 61//69 73//69 74//69
f 61//69 74//69 62//69
f 71//70 47//70 48//70
f 71//70 48//70 72//70
f 59//70 71//70 72//70
f 59//70 72//70 60//70
f 70//71 58//71 56//71
f 70//71 56//71 68//71
f 46//71 70//71 68//71
f 46//71 68//71 44//71
f 69//72 45//72 40//72
f 69//72 40//72 64//72
f 57//72 69//72 64//72
f 57//72 64//72 52//72
f 67//73 43//73 44//73
f 67//78 44//78 68//78
f 55//74 67//74 68//74
f 55//73 68//73 56//73
f 65//75 41//75 42//75
f 65//75 42//75 66//75
f 53//75 65//75 66//75
f 53//75 66//75 54//75
f 66//76 42//76 43//76
f 66//76 43//76 67//76
f 54//76 66//76 67//76
f 54//76 67//76 55//76
f 64//77 40//77 41//77
f 64//77 41//77 65//77
f 52//77 64//77 65//77
f 52//77 65//77 53//77
f 20//90 23//90 25//90
f 20//90 25//90 21//90
f 22//90 24//90 25//90
f 22//90 25//90 23//90
f 18//90 21//90 26//90
f 21//90 25//90 26//90
f 19//90 26//90 24//90
f 26//90 25//90 24//90
f 13//90 18//90 26//90
f 13//90 26//90 27//90
f 17//90 27//90 26//90
f 17//90 26//90 19//90
f 13//90 27//90 14//90
f 27//90 15//90 14//90
f 15//90 27//90 16//90
f 27//90 17//90 16//90
