v 1.992502 0.009818 20.004650
v 1.492502 -0.856106 20.004652
v -2.007498 0.013818 20.004650
v -1.507498 -0.852105 20.004652
v -0.007498 -1.718131 20.004652
v 0.992502 -1.718131 20.004652
v -1.007498 -1.718131 20.004652
v 0.992502 1.741869 20.004650
v -1.007497 1.741869 20.004650
v -0.007498 1.741869 20.004650
v 1.492502 0.875844 20.004650
v -1.507498 0.879843 20.004650
v 0.011050 1.713844 0.004651
v -0.988950 1.713844 0.004651
v -1.488950 0.847819 0.004651
v -1.988950 -0.018206 0.004651
v -1.492414 -0.882231 0.004651
v 1.010962 1.713895 0.004651
v -0.992502 -1.748206 0.004651
v 2.007498 -0.016156 0.004651
v 1.510962 0.847870 0.004651
v 1.007497 -1.748206 0.004651
v 1.507497 -0.882181 0.004651
v 0.007498 -1.748206 0.004651
v 0.759229 -0.450168 0.004651
v 0.009230 -0.017155 0.004651
v -0.740682 0.415807 0.004651
v -1.057498 0.628680 20.024139
v 1.042502 0.625880 20.024139
v -0.007498 1.232098 20.024139
v -0.707497 1.232098 20.024139
v 0.692502 1.232098 20.024139
v -0.707498 -1.189902 20.024139
v 0.692502 -1.189902 20.024139
v -0.007498 -1.189902 20.024139
v -1.057498 -0.583684 20.024139
v -1.407498 0.022463 20.024139
v 1.042502 -0.586484 20.024139
v 1.392502 0.019663 20.024139
v -1.488950 0.869237 10.004651
v -1.988950 0.003211 10.004651
v -1.488950 -0.862814 10.004651
v -0.988951 -1.728839 10.004651
v 0.007586 -1.730839 10.004651
v -0.989038 1.735211 10.004651
v 1.007497 -1.730891 10.004651
v 1.007498 1.733211 10.004651
v 0.010961 1.735211 10.004651
v 2.007497 0.001160 10.004651
v 1.507498 0.867186 10.004651
v 1.507498 -0.864865 10.004651
v -1.728840 0.011050 15.004651
v -1.728840 -0.988949 15.004651
v -0.862815 -1.488949 15.004651
v 0.003210 -1.988949 15.004651
v 0.867236 -1.492414 15.004651
v -1.728891 1.010962 15.004651
v 1.733211 -0.992502 15.004651
v 0.001160 2.007499 15.004651
v -0.862866 1.510962 15.004651
v 1.733211 1.007498 15.004651
v 0.867185 1.507498 15.004651
v 1.733211 0.007498 15.004651
v -1.665386 0.455935 12.504651
v -1.924205 -0.509991 12.504651
v -1.217099 -1.217098 12.504651
v -0.509992 -1.924205 12.504651
v 0.453105 -1.668214 12.504651
v -1.406639 1.421788 12.504651
v 1.418959 -1.409467 12.504651
v 0.522384 1.936598 12.504651
v -0.440714 1.680607 12.504651
v 1.936597 0.522384 12.504651
v 1.229491 1.229491 12.504651
v 1.677778 -0.443541 12.504651
v -1.674987 -0.435098 17.504652
v -1.416168 -1.401023 17.504652
v -0.450243 -1.659842 17.504652
v 0.515683 -1.918662 17.504652
v 1.221755 -1.215419 17.504652
v -1.933833 0.530730 17.504650
v 1.928835 -0.508410 17.504652
v -0.520654 1.941080 17.504650
v -1.226726 1.237836 17.504650
v 1.411197 1.423442 17.504650
v 0.445272 1.682260 17.504650
v 1.670016 0.457516 17.504650
v -0.852106 1.492502 5.004651
v -1.718131 0.992503 5.004651
v -1.718131 -0.007497 5.004651
v -1.718132 -1.007497 5.004651
v -0.856106 -1.507497 5.004651
v 0.013818 1.992502 5.004651
v 0.009817 -2.007498 5.004651
v 1.741868 0.992502 5.004651
v 0.879843 1.492503 5.004651
v 1.741868 -1.007497 5.004651
v 1.741868 -0.007498 5.004651
v 0.875843 -1.507497 5.004651
v -1.211555 1.222790 7.504651
v -1.918662 0.515684 7.504651
v -1.659843 -0.450242 7.504651
v -1.401024 -1.416167 7.504651
v -0.438962 -1.676022 7.504651
v -0.504547 1.929871 7.504651
v 0.526865 -1.934868 7.504651
v 1.423441 1.411197 7.504651
v 0.461379 1.671052 7.504651
v 1.941079 -0.520654 7.504651
v 1.682260 0.445272 7.504651
v 1.233972 -1.227761 7.504651
v -0.435098 1.659992 2.504651
v -1.401024 1.401173 2.504651
v -1.659843 0.435247 2.504651
v -1.918662 -0.530678 2.504651
v -1.215419 -1.236750 2.504651
v 0.530729 1.918837 2.504651
v -0.508411 -1.943830 2.504651
v 1.941079 0.505659 2.504651
v 1.237836 1.211731 2.504651
v 1.423441 -1.426193 2.504651
v 1.682260 -0.460267 2.504651
v 0.457515 -1.685012 2.504651
v -0.006605 0.011664 5.024138
v -0.008235 0.012153 5.024138
v -0.008468 0.011666 5.024138
v -0.007071 0.012639 5.024138
v -0.008002 0.012639 5.024138
v -0.006838 0.011176 5.024138
v -0.007071 0.010691 5.024138
v -0.008002 0.010691 5.024138
v -0.007516 0.011819 5.024138
v 1.051162 0.616415 14.999139
v 1.401162 0.010197 14.999139
v -1.398838 0.012997 14.999139
v -1.048838 0.619215 14.999139
v 0.701162 1.222633 14.999139
v -0.698838 1.222633 14.999139
v 0.001162 1.222633 14.999139
v 1.051162 -0.595949 14.999140
v -1.048838 -0.593149 14.999140
v 0.701162 -1.199367 14.999140
v 0.001162 -1.199367 14.999140
v -0.698838 -1.199367 14.999140
v 1.067261 0.611585 10.011640
v 1.417261 0.005368 10.011640
v -1.382738 0.008168 10.011640
v -1.032739 0.614385 10.011640
v 0.717261 1.217803 10.011640
v -0.682738 1.217804 10.011640
v 0.017261 1.217803 10.011640
v 1.067261 -0.600779 10.011640
v -1.032739 -0.597979 10.011640
v 0.717261 -1.204197 10.011640
v 0.017261 -1.204196 10.011640
v -0.682739 -1.204197 10.011640
vn 0.557787 -0.267129 0.785791
vn 0.000000 0.000000 1.000000
vn 0.387310 -0.615192 0.686636
vn 0.746330 -0.000031 0.665548
vn -0.861293 -0.487167 0.144169
vn -0.742607 -0.000092 0.669698
vn -0.990722 0.000458 0.135807
vn 0.491867 -0.860225 0.134312
vn 0.000000 -0.992920 0.118748
vn 0.000000 0.992920 0.118686
vn 0.387738 0.614277 0.687246
vn 0.492355 0.859951 0.134251
vn 0.861660 0.486984 0.142552
vn 0.404248 0.724021 0.558855
vn 0.026337 0.796136 0.604511
vn -0.400983 -0.697165 0.594226
vn 0.000000 -0.694784 0.719199
vn -0.424299 0.713004 0.558153
vn 0.400616 -0.695547 0.596362
vn -0.676107 0.421522 0.604266
vn 0.599963 -0.347179 0.720725
vn -0.830042 -0.011658 0.557573
vn 0.804163 -0.001312 0.594378
vn -0.702902 -0.375408 0.604144
vn 0.602435 0.347819 0.718375
vn -0.404767 -0.724174 0.558275
vn 0.403729 0.696646 0.592975
vn -0.026337 -0.795648 0.605152
vn 0.000000 0.696616 0.717399
vn 0.423688 -0.712333 0.559465
vn -0.402661 0.698996 0.590930
vn 0.674886 -0.420820 0.606128
vn -0.601672 0.348186 0.718802
vn 0.828761 0.011780 0.559435
vn -0.805322 -0.001312 0.592792
vn 0.702078 0.374920 0.605365
vn -0.602557 -0.347880 0.718223
vn 0.500198 0.865902 0.000000
vn 0.865993 0.500015 0.001404
vn -0.497360 0.856960 0.134861
vn -0.385052 0.613605 0.689322
vn -0.497024 0.867702 -0.002441
vn 0.000000 0.999969 -0.001404
vn -0.860683 0.487686 0.146123
vn -0.554491 0.265542 0.788659
vn -0.865108 0.501511 -0.002838
vn 0.990997 0.000366 0.133671
vn 0.999969 0.002655 0.002441
vn -0.999969 0.002136 -0.002472
vn 0.861110 -0.487381 0.144444
vn 0.865871 -0.500198 0.002838
vn 0.501144 -0.865322 0.002472
vn -0.385846 -0.613880 0.688650
vn -0.498520 -0.856288 0.134953
vn 0.000000 -0.999969 0.001404
vn -0.500198 -0.865902 0.000000
vn -0.866024 -0.499985 -0.001404
vn -0.258889 -0.965880 0.001770
vn -0.422926 -0.709738 -0.563341
vn 0.026307 -0.787896 -0.615192
vn 0.258827 -0.965911 0.001556
vn -0.000092 -0.999969 0.001770
vn 0.499985 -0.865993 0.001556
vn 0.707816 0.706381 -0.001679
vn 0.668508 0.415235 -0.616932
vn 0.422346 0.708579 -0.565233
vn 0.258705 0.965941 -0.002197
vn 0.500870 0.865505 -0.001679
vn -0.000092 0.999969 -0.002197
vn 0.402966 -0.721030 -0.563646
vn 0.707053 -0.707114 0.000885
vn 0.865993 -0.500015 0.000885
vn 0.965911 -0.258797 0.000000
vn 0.696493 -0.371654 -0.613788
vn 0.825312 -0.012329 -0.564501
vn 0.966186 0.257759 -0.000702
vn 1.000000 0.000000 0.000000
vn 0.866543 0.499039 -0.000702
vn -0.500870 -0.865505 0.001831
vn -0.707816 -0.706351 0.001831
vn -0.669515 -0.415815 -0.615467
vn -0.026337 0.786645 -0.616810
vn -0.258827 0.965911 -0.001923
vn -0.499985 0.865993 -0.001923
vn -0.966216 -0.257698 0.001282
vn -0.825770 0.011994 -0.563860
vn -0.866573 -0.498978 0.001282
vn -0.707114 0.707053 -0.001099
vn -0.402722 0.720206 -0.564867
vn -0.696371 0.371593 -0.613941
vn -0.965911 0.258797 0.000000
vn -0.866024 0.499954 -0.001099
vn -1.000000 0.000000 0.000000
vn 0.258705 -0.965941 0.001770
vn 0.707083 -0.707083 0.001556
vn 0.499893 -0.866054 0.001770
vn 0.866024 -0.499985 0.001556
vn 0.259804 0.965636 -0.001679
vn -0.258919 0.965880 -0.002197
vn 0.001007 0.999969 -0.001679
vn -0.500076 0.865963 -0.002197
vn 0.965911 -0.258827 0.000885
vn 0.999969 -0.000031 0.000885
vn 0.965911 0.258797 0.000000
vn 0.707846 0.706320 -0.000702
vn 0.866024 0.499985 0.000000
vn 0.500931 0.865474 -0.000702
vn -0.001007 -0.999969 0.001831
vn -0.259804 -0.965636 0.001831
vn -0.707114 0.707083 -0.001923
vn -0.866024 0.499985 -0.001923
vn -0.707907 -0.706259 0.001282
vn -0.500992 -0.865444 0.001282
vn -0.965911 0.258766 -0.001099
vn -0.965911 -0.258797 0.000000
vn -0.999969 -0.000031 -0.001099
vn -0.866024 -0.499985 0.000000
vn 0.965880 -0.258889 0.001770
vn 0.865963 -0.500076 0.001770
vn 0.999969 0.000000 0.001556
vn 0.965911 0.258827 0.001556
vn -0.706381 0.707816 -0.001679
vn -0.499100 0.866512 -0.001679
vn -0.866054 0.499893 -0.002197
vn -0.965941 0.258705 -0.002197
vn 0.866024 0.499954 0.000885
vn 0.707114 0.707053 0.000885
vn 0.258797 0.965911 0.000000
vn 0.499985 0.866024 0.000000
vn 0.001068 0.999969 -0.000702
vn -0.257759 0.966186 -0.000702
vn 0.706351 -0.707816 0.001831
vn 0.499100 -0.866512 0.001831
vn -0.999969 0.000000 -0.001923
vn -0.965911 -0.258827 -0.001923
vn 0.257698 -0.966216 0.001282
vn -0.001129 -0.999969 0.001282
vn -0.707053 -0.707114 -0.001099
vn -0.865993 -0.500015 -0.001099
vn -0.499985 -0.866024 0.000000
vn -0.258797 -0.965911 0.000000
vn 0.707022 -0.707144 0.001770
vn 0.965911 -0.258797 0.001556
vn -0.257820 0.966186 -0.001679
vn -0.707175 0.707022 -0.002197
vn 0.965911 0.258766 0.000885
vn 0.707083 0.707083 0.000000
vn 0.259835 0.965636 -0.000702
vn 0.257820 -0.966186 0.001831
vn -0.965911 0.258797 -0.001923
vn -0.259926 -0.965606 0.001282
vn -0.965911 -0.258858 -0.001099
vn -0.707083 -0.707083 0.000000
vn 0.000000 0.000000 -1.000000
f 125//1 132//2 128//3
f 125//1 126//4 132//2
f 145//5 124//6 146//7
f 150//8 128//3 151//9
f 155//10 131//11 156//12
f 156//12 131//11 153//13
f 8//14 10//15 32//16
f 10//15 30//17 32//16
f 9//18 31//19 10//15
f 31//19 30//17 10//15
f 9//18 12//20 31//19
f 12//20 28//21 31//19
f 3//22 37//23 12//20
f 37//23 28//21 12//20
f 3//22 4//24 37//23
f 4//24 36//25 37//23
f 4//24 7//26 33//27
f 4//24 33//27 36//25
f 5//28 35//29 33//27
f 5//28 33//27 7//26
f 5//28 6//30 34//31
f 5//28 34//31 35//29
f 2//32 38//33 34//31
f 2//32 34//31 6//30
f 1//34 39//35 2//32
f 39//35 38//33 2//32
f 1//34 11//36 39//35
f 11//36 29//37 39//35
f 8//14 32//16 11//36
f 32//16 29//37 11//36
f 144//38 156//12 153//13
f 144//38 153//13 141//39
f 154//40 130//41 155//10
f 130//41 131//11 155//10
f 142//42 154//40 155//10
f 142//42 155//10 143//43
f 143//43 155//10 156//12
f 143//43 156//12 144//38
f 152//44 129//45 130//41
f 152//44 130//41 154//40
f 140//46 152//44 154//40
f 140//46 154//40 142//42
f 153//13 131//11 126//4
f 153//13 126//4 147//47
f 141//39 153//13 147//47
f 141//39 147//47 135//48
f 146//7 124//6 152//44
f 124//6 129//45 152//44
f 134//49 146//7 152//44
f 134//49 152//44 140//46
f 148//50 125//1 128//3
f 148//50 128//3 150//8
f 136//51 148//50 138//52
f 148//50 150//8 138//52
f 151//9 128//3 127//53
f 151//9 127//53 149//54
f 139//55 151//9 137//56
f 151//9 149//54 137//56
f 138//52 150//8 139//55
f 150//8 151//9 139//55
f 149//54 127//53 145//5
f 127//53 124//6 145//5
f 137//56 149//54 133//57
f 149//54 145//5 133//57
f 147//47 126//4 148//50
f 126//4 125//1 148//50
f 135//48 147//47 136//51
f 147//47 148//50 136//51
f 133//57 145//5 134//49
f 145//5 146//7 134//49
f 33//27 144//38 141//39
f 33//27 141//39 36//25
f 34//31 142//42 143//43
f 34//31 143//43 35//29
f 35//29 143//43 144//38
f 35//29 144//38 33//27
f 38//33 140//46 34//31
f 140//46 142//42 34//31
f 36//25 141//39 135//48
f 36//25 135//48 37//23
f 39//35 134//49 38//33
f 134//49 140//46 38//33
f 28//21 136//51 138//52
f 28//21 138//52 31//19
f 30//17 139//55 32//16
f 139//55 137//56 32//16
f 31//19 138//52 30//17
f 138//52 139//55 30//17
f 32//16 137//56 29//37
f 137//56 133//57 29//37
f 37//23 135//48 136//51
f 37//23 136//51 28//21
f 29//37 133//57 39//35
f 133//57 134//49 39//35
f 129//45 124//6 132//2
f 129//45 132//2 130//41
f 126//4 131//11 132//2
f 131//11 130//41 132//2
f 124//6 127//53 132//2
f 127//53 128//3 132//2
f 118//58 19//59 24//60
f 118//58 24//60 123//61
f 94//62 118//58 123//61
f 94//62 123//61 99//63
f 120//64 21//65 18//66
f 120//64 18//66 117//67
f 96//68 120//64 117//67
f 96//68 117//67 93//69
f 123//61 24//60 22//70
f 123//61 22//70 121//71
f 99//63 123//61 121//71
f 99//63 121//71 97//72
f 122//73 23//74 20//75
f 122//73 20//75 119//76
f 98//77 122//73 119//76
f 98//77 119//76 95//78
f 121//71 22//70 23//74
f 121//71 23//74 122//73
f 97//72 121//71 122//73
f 97//72 122//73 98//77
f 119//76 20//75 21//65
f 119//76 21//65 120//64
f 95//78 119//76 120//64
f 95//78 120//64 96//68
f 118//58 94//62 92//79
f 118//58 92//79 116//80
f 19//59 118//58 116//80
f 19//59 116//80 17//81
f 117//67 18//66 13//82
f 117//67 13//82 112//83
f 93//69 117//67 112//83
f 93//69 112//83 88//84
f 115//85 16//86 17//81
f 115//85 17//81 116//80
f 91//87 115//85 116//80
f 91//87 116//80 92//79
f 113//88 14//89 15//90
f 113//88 15//90 114//91
f 89//92 113//88 114//91
f 89//92 114//91 90//93
f 114//91 15//90 16//86
f 114//91 16//86 115//85
f 90//93 114//91 115//85
f 90//93 115//85 91//87
f 112//83 13//82 14//89
f 112//83 14//89 113//88
f 88//84 112//83 113//88
f 88//84 113//88 89//92
f 106//94 94//62 99//63
f 106//94 99//63 111//95
f 46//96 106//94 111//95
f 46//96 111//95 51//97
f 108//98 96//68 93//69
f 108//98 93//69 105//99
f 48//100 108//98 105//99
f 48//100 105//99 45//101
f 111//95 99//63 97//72
f 111//95 97//72 109//102
f 51//97 111//95 109//102
f 51//97 109//102 49//103
f 110//104 98//77 95//78
f 110//104 95//78 107//105
f 50//106 110//104 107//105
f 50//106 107//105 47//107
f 109//102 97//72 98//77
f 109//102 98//77 110//104
f 49//103 109//102 110//104
f 49//103 110//104 50//106
f 107//105 95//78 96//68
f 107//105 96//68 108//98
f 47//107 107//105 108//98
f 47//107 108//98 48//100
f 106//94 46//96 44//108
f 106//94 44//108 104//109
f 94//62 106//94 104//109
f 94//62 104//109 92//79
f 105//99 93//69 88//84
f 105//99 88//84 100//110
f 45//101 105//99 100//110
f 45//101 100//110 40//111
f 103//112 91//87 92//79
f 103//112 92//79 104//109
f 43//113 103//112 104//109
f 43//113 104//109 44//108
f 101//114 89//92 90//93
f 101//114 90//93 102//115
f 41//116 101//114 102//115
f 41//116 102//115 42//117
f 102//115 90//93 91//87
f 102//115 91//87 103//112
f 42//117 102//115 103//112
f 42//117 103//112 43//113
f 100//110 88//84 89//92
f 100//110 89//92 101//114
f 40//111 100//110 101//114
f 40//111 101//114 41//116
f 82//118 58//119 63//120
f 82//118 63//120 87//121
f 1//34 82//118 87//121
f 1//34 87//121 11//36
f 84//122 60//123 57//124
f 84//122 57//124 81//125
f 12//20 84//122 81//125
f 12//20 81//125 3//22
f 87//121 63//120 61//126
f 87//121 61//126 85//127
f 11//36 87//121 85//127
f 11//36 85//127 8//14
f 86//128 62//129 59//130
f 86//128 59//130 83//131
f 10//15 86//128 83//131
f 10//15 83//131 9//18
f 85//127 61//126 62//129
f 85//127 62//129 86//128
f 8//14 85//127 86//128
f 8//14 86//128 10//15
f 83//131 59//130 60//123
f 83//131 60//123 84//122
f 9//18 83//131 84//122
f 9//18 84//122 12//20
f 82//118 1//34 2//32
f 82//118 2//32 80//132
f 58//119 82//118 80//132
f 58//119 80//132 56//133
f 81//125 57//124 52//134
f 81//125 52//134 76//135
f 3//22 81//125 76//135
f 3//22 76//135 4//24
f 79//136 55//137 56//133
f 79//136 56//133 80//132
f 6//30 79//136 80//132
f 6//30 80//132 2//32
f 77//138 53//139 54//140
f 77//138 54//140 78//141
f 7//26 77//138 78//141
f 7//26 78//141 5//28
f 78//141 54//140 55//137
f 78//141 55//137 79//136
f 5//28 78//141 79//136
f 5//28 79//136 6//30
f 76//135 52//134 53//139
f 76//135 53//139 77//138
f 4//24 76//135 77//138
f 4//24 77//138 7//26
f 70//142 46//96 51//97
f 70//142 51//97 75//143
f 58//119 70//142 75//143
f 58//119 75//143 63//120
f 72//144 48//100 45//101
f 72//144 45//101 69//145
f 60//123 72//144 69//145
f 60//123 69//145 57//124
f 75//143 51//97 49//103
f 75//143 49//103 73//146
f 63//120 75//143 73//146
f 63//120 73//146 61//126
f 74//147 50//106 47//107
f 74//147 47//107 71//148
f 62//129 74//147 71//148
f 62//129 71//148 59//130
f 73//146 49//103 50//106
f 73//146 50//106 74//147
f 61//126 73//146 74//147
f 61//126 74//147 62//129
f 71//148 47//107 48//100
f 71//148 48//100 72//144
f 59//130 71//148 72//144
f 59//130 72//144 60//123
f 70//142 58//119 56//133
f 70//142 56//133 68//149
f 46//96 70//142 68//149
f 46//96 68//149 44//108
f 69//145 45//101 40//111
f 69//145 40//111 64//150
f 57//124 69//145 64//150
f 57//124 64//150 52//134
f 67//151 43//113 44//108
f 67//151 44//108 68//149
f 55//137 67//151 68//149
f 55//137 68//149 56//133
f 65//152 41//116 42//117
f 65//152 42//117 66//153
f 53//139 65//152 66//153
f 53//139 66//153 54//140
f 66//153 42//117 43//113
f 66//153 43//113 67//151
f 54//140 66//153 67//151
f 54//140 67//151 55//137
f 64//150 40//111 41//116
f 64//150 41//116 65//152
f 52//134 64//150 65//152
f 52//134 65//152 53//139
f 20//75 23//74 25//154
f 20//75 25//154 21//65
f 22//70 24//60 25//154
f 22//70 25//154 23//74
f 18//66 21//65 26//154
f 21//65 25//154 26//154
f 19//59 26//154 24//60
f 26//154 25//154 24//60
f 13//82 18//66 26//154
f 13//82 26//154 27//154
f 17//81 27//154 26//154
f 17//81 26//154 19//59
f 13//82 27//154 14//89
f 27//154 15//90 14//89
f 15//90 27//154 16//86
f 27//154 17//81 16//86
