v 0.350018 -0.495244 -0.350018
v 0.457320 -0.495244 -0.189428
v 0.495000 -0.495244 0.000000
v 0.457320 -0.495244 0.189428
v 0.350018 -0.495244 0.350018
v 0.189428 -0.495244 0.457320
v 0.000000 -0.495244 0.495000
v -0.189428 -0.495244 0.457320
v -0.350018 -0.495244 0.350018
v -0.457320 -0.495244 0.189428
v -0.495000 -0.495244 0.000000
v -0.457320 -0.495244 -0.189428
v -0.350018 -0.495244 -0.350018
v -0.189428 -0.495244 -0.457320
v 0.000000 -0.495244 -0.495000
v 0.189429 -0.495244 -0.457320
v 0.000000 0.495244 -0.000000
v 0.000000 -0.297146 0.000000
v 0.200014 -0.047555 -0.205266
v 0.401608 -0.486862 -0.272718
v 0.220732 0.044386 -0.108850
v 0.481504 -0.494996 -0.097651
v 0.296777 -0.017812 0.038570
v 0.475349 -0.486979 0.097461
v 0.187764 0.006278 0.070869
v 0.400833 -0.504756 0.275305
v 0.147000 0.046306 0.149724
v 0.271845 -0.502764 0.409728
v 0.060784 -0.012223 0.232412
v 0.099061 -0.502989 0.478551
v 0.019226 -0.013512 0.247425
v -0.086086 -0.503283 0.473157
v -0.081107 -0.028007 0.198288
v -0.273139 -0.501520 0.400589
v -0.221532 0.053631 0.171677
v -0.411716 -0.498103 0.267914
v -0.268282 -0.038565 0.127656
v -0.479969 -0.499822 0.096268
v -0.294661 0.013599 -0.001201
v -0.469187 -0.504341 -0.085433
v -0.255501 -0.010016 -0.045462
v -0.398654 -0.485918 -0.270092
v -0.195468 -0.000985 -0.140584
v -0.278670 -0.497377 -0.400689
v -0.056529 0.048179 -0.280641
v -0.101485 -0.485630 -0.479933
v -0.043026 -0.001347 -0.233101
v 0.088524 -0.493540 -0.473846
v 0.078861 0.053653 -0.191330
v 0.267177 -0.491051 -0.395700
v 0.213902 -0.419326 -0.094094
v 0.161513 -0.417241 -0.195167
v 0.236530 -0.387001 -0.007727
v 0.242733 -0.416063 0.104785
v 0.194130 -0.375337 0.174842
v 0.090527 -0.411503 0.245731
v 0.017869 -0.377893 0.224312
v -0.119286 -0.371608 0.242715
v -0.190877 -0.389625 0.166965
v -0.212236 -0.379374 0.075314
v -0.258704 -0.394787 0.021680
v -0.229560 -0.378327 -0.104156
v -0.172633 -0.381543 -0.165284
v -0.100742 -0.373683 -0.250237
v -0.007132 -0.407697 -0.227370
v 0.095289 -0.372742 -0.204528
vn 0.776117 0.411606 -0.477727
vn 0.722372 0.416271 -0.552175
vn 0.662393 0.465928 -0.586640
vn 0.733677 0.418832 -0.535068
vn 0.848365 0.472835 -0.238125
vn 0.868271 0.414106 -0.273171
vn 0.877541 0.419436 -0.232369
vn 0.912679 0.389043 -0.125149
vn 0.326328 0.257146 0.909608
vn 0.323921 0.238219 0.915602
vn 0.916929 0.368284 0.153649
vn 0.839737 0.500896 0.209630
vn 0.886411 0.378921 0.265885
vn 0.866069 0.449019 0.219786
vn 0.698605 0.497134 0.514596
vn 0.761899 0.455813 0.460157
vn 0.468077 0.413694 0.780872
vn 0.428188 0.464447 0.775206
vn 0.510579 0.460066 0.726394
vn 0.472702 0.472306 0.743962
vn 0.295522 0.426830 0.854683
vn 0.291656 0.446902 0.845704
vn 0.167039 0.452395 0.876035
vn 0.180452 0.443885 0.877726
vn -0.450763 0.376569 0.809326
vn -0.444150 0.452031 0.773562
vn -0.258897 0.449664 0.854854
vn -0.093182 0.499193 0.861466
vn 0.026453 0.350651 0.936132
vn 0.044069 0.377333 0.925029
vn -0.509990 0.504484 0.696711
vn -0.489018 0.370983 0.789451
vn -0.892952 0.450117 0.005588
vn -0.908083 0.352468 0.226168
vn -0.752954 0.356076 0.553418
vn -0.789606 0.390838 0.473041
vn -0.796278 0.486252 0.359863
vn -0.866464 0.375243 0.329292
vn -0.895862 0.397652 0.198253
vn -0.918274 0.361916 0.160590
vn -0.592477 0.364258 -0.718531
vn -0.615924 0.324304 -0.717959
vn -0.886417 0.348275 -0.304908
vn -0.913656 0.400551 -0.069218
vn -0.779603 0.434790 -0.450750
vn -0.775925 0.444622 -0.447495
vn -0.744475 0.454697 -0.488883
vn -0.741108 0.444825 -0.502881
vn -0.710695 0.436294 -0.551869
vn -0.714580 0.414904 -0.563232
vn -0.503087 0.465780 -0.727978
vn -0.502872 0.376021 -0.778285
vn 0.969381 0.030392 -0.243674
vn 0.965883 0.015175 -0.258532
vn -0.269033 0.356668 -0.894656
vn -0.087480 0.460725 -0.883221
vn 0.122930 0.412948 -0.902420
vn 0.096210 0.457977 -0.883742
vn 0.196203 0.472661 -0.859125
vn 0.151362 0.455588 -0.877228
vn 0.252637 0.422298 -0.870539
vn 0.244642 0.413613 -0.876969
vn 0.538684 0.452805 -0.710483
vn 0.456525 0.408519 -0.790378
vn -0.418713 -0.886104 0.198746
vn -0.244857 -0.963633 0.107032
vn -0.267266 -0.960115 0.082153
vn -0.199460 -0.951003 0.236240
vn -0.313332 -0.859522 0.403788
vn -0.245044 -0.885175 0.395497
vn -0.387072 -0.920629 0.051161
vn -0.270448 -0.959898 0.073854
vn -0.352916 -0.910449 -0.215713
vn -0.290640 -0.930184 -0.224244
vn -0.292742 -0.945536 -0.142354
vn -0.386285 -0.922379 0.000328
vn -0.488949 -0.857635 0.159345
vn -0.559732 -0.823715 0.090520
vn -0.450445 -0.871149 -0.195445
vn -0.241324 -0.934342 -0.262237
vn 0.022116 -0.903268 -0.428506
vn -0.015890 -0.881067 -0.472724
vn -0.235772 -0.936286 -0.260347
vn -0.224962 -0.885718 -0.406073
vn -0.327448 -0.897035 -0.296827
vn -0.311371 -0.888286 -0.337634
vn -0.137478 -0.905435 -0.401605
vn -0.006101 -0.930783 -0.365522
vn -0.087492 -0.939487 -0.331224
vn -0.104535 -0.869910 -0.482005
vn 0.008671 -0.867683 -0.497042
vn 0.181349 -0.906591 -0.381059
vn 0.352274 -0.929179 -0.111931
vn 0.469323 -0.849348 -0.241544
vn 0.172587 -0.910657 -0.375391
vn 0.328034 -0.860954 -0.388784
vn 0.301080 -0.937402 -0.175012
vn 0.363059 -0.912868 -0.186711
vn 0.329051 -0.917211 -0.224611
vn 0.343948 -0.911204 -0.226731
vn 0.350360 -0.935977 -0.034583
vn 0.403010 -0.911016 -0.087372
vn 0.397238 -0.911645 -0.105382
vn 0.406165 -0.912208 -0.053913
vn 0.349766 -0.935921 -0.041416
vn 0.464928 -0.885311 -0.008124
vn 0.463798 -0.885601 -0.024545
vn 0.366570 -0.906995 0.207334
vn 0.218474 -0.942462 0.253051
vn 0.278055 -0.910238 0.306842
vn 0.290587 -0.913898 0.283461
vn 0.394083 -0.900779 0.182472
vn 0.299665 -0.939373 0.166672
vn 0.397434 -0.881558 0.254757
vn 0.273081 -0.876101 0.397334
vn 0.220530 -0.910858 0.348861
vn -0.398361 -0.819917 0.411151
vn -0.397913 -0.824185 0.402970
vn -0.044026 -0.949865 0.309546
vn 0.206274 -0.879853 0.428147
vn 0.206910 -0.882407 0.422548
vn 0.216595 -0.892783 0.395000
vn -0.082421 -0.908543 0.409580
vn -0.055588 -0.949407 0.309088
vn -0.231088 -0.906540 0.353247
vn -0.558747 -0.829268 0.010818
vn -0.561453 -0.826346 0.043848
vn -0.186615 -0.949762 0.251251
f 21//1 2//1 20//1
f 20//2 19//2 21//2
f 17//3 21//3 19//3
f 20//4 1//4 19//4
f 21//5 17//5 23//5
f 23//6 22//6 21//6
f 2//7 21//7 22//7
f 22//8 23//8 3//8
f 23//9 17//9 25//9
f 25//10 24//10 23//10
f 3//11 23//11 24//11
f 24//12 25//12 4//12
f 25//13 17//13 27//13
f 27//14 26//14 25//14
f 4//15 25//15 26//15
f 26//16 27//16 5//16
f 27//17 17//17 29//17
f 29//18 28//18 27//18
f 5//19 27//19 28//19
f 28//20 29//20 6//20
f 29//21 17//21 31//21
f 31//22 30//22 29//22
f 6//23 29//23 30//23
f 30//24 31//24 7//24
f 31//25 17//25 33//25
f 33//26 32//26 31//26
f 7//27 31//27 32//27
f 32//28 33//28 8//28
f 33//29 17//29 35//29
f 35//30 34//30 33//30
f 8//31 33//31 34//31
f 34//32 35//32 9//32
f 35//33 17//33 37//33
f 37//34 36//34 35//34
f 9//35 35//35 36//35
f 36//36 37//36 10//36
f 37//37 17//37 39//37
f 39//38 38//38 37//38
f 10//39 37//39 38//39
f 38//40 39//40 11//40
f 39//41 17//41 41//41
f 41//42 40//42 39//42
f 11//43 39//43 40//43
f 40//44 41//44 12//44
f 41//45 17//45 43//45
f 43//46 42//46 41//46
f 12//47 41//47 42//47
f 42//48 43//48 13//48
f 43//49 17//49 45//49
f 45//50 44//50 43//50
f 13//51 43//51 44//51
f 44//52 45//52 14//52
f 45//53 17//53 47//53
f 47//54 46//54 45//54
f 14//55 45//55 46//55
f 46//56 47//56 15//56
f 47//57 17//57 49//57
f 49//58 48//58 47//58
f 15//59 47//59 48//59
f 48//60 49//60 16//60
f 49//61 17//61 19//61
f 19//62 50//62 49//62
f 16//63 49//63 50//63
f 19//64 1//64 50//64
f 51//65 18//65 52//65
f 52//66 20//66 51//66
f 2//67 51//67 20//67
f 52//68 1//68 20//68
f 53//69 18//69 51//69
f 51//70 22//70 53//70
f 3//71 53//71 22//71
f 22//72 51//72 2//72
f 54//73 18//73 53//73
f 53//74 24//74 54//74
f 4//75 54//75 24//75
f 24//76 53//76 3//76
f 55//77 18//77 54//77
f 54//78 26//78 55//78
f 5//79 55//79 26//79
f 26//80 54//80 4//80
f 56//81 18//81 55//81
f 55//82 28//82 56//82
f 6//83 56//83 28//83
f 28//84 55//84 5//84
f 57//85 18//85 56//85
f 56//86 30//86 57//86
f 7//87 57//87 30//87
f 30//88 56//88 6//88
f 58//89 18//89 57//89
f 57//90 32//90 58//90
f 8//91 58//91 32//91
f 32//92 57//92 7//92
f 59//93 18//93 58//93
f 58//94 34//94 59//94
f 9//95 59//95 34//95
f 34//96 58//96 8//96
f 60//97 18//97 59//97
f 59//98 36//98 60//98
f 10//99 60//99 36//99
f 36//100 59//100 9//100
f 61//101 18//101 60//101
f 60//102 38//102 61//102
f 11//103 61//103 38//103
f 38//104 60//104 10//104
f 62//105 18//105 61//105
f 61//106 40//106 62//106
f 12//107 62//107 40//107
f 40//108 61//108 11//108
f 63//109 18//109 62//109
f 62//110 42//110 63//110
f 13//111 63//111 42//111
f 42//112 62//112 12//112
f 64//113 18//113 63//113
f 63//114 44//114 64//114
f 14//115 64//115 44//115
f 44//116 63//116 13//116
f 65//117 18//117 64//117
f 64//118 46//118 65//118
f 15//119 65//119 46//119
f 46//120 64//120 14//120
f 66//121 18//121 65//121
f 65//122 48//122 66//122
f 16//123 66//123 48//123
f 48//124 65//124 15//124
f 66//125 16//125 50//125
f 50//126 52//126 66//126
f 18//127 66//127 52//127
f 50//128 1//128 52//128
