v 0.500000 0.230875 -0.339396
v -0.500000 -0.230875 -0.339396
v 0.500000 -0.230875 -0.339396
v -0.500000 0.230875 -0.339396
v 0.500000 0.230874 0.339396
v -0.500000 -0.230875 0.339396
v 0.499999 -0.230874 0.339396
v -0.500000 0.230875 0.339396
v -0.000000 -0.500000 -0.339396
v -0.000000 0.500000 -0.339396
v 0.000000 -0.000000 -0.339396
v -0.000000 -0.000000 0.339396
v 0.000001 -0.500000 0.339396
v 0.000000 0.500000 0.339396
v -0.500000 -0.230875 -0.000000
v 0.500000 0.230875 -0.000000
v 0.500000 -0.230874 0.000000
v -0.500000 0.230875 0.000000
v 0.000000 -0.500000 0.000000
v 0.000000 0.500000 0.000000
v 0.000000 0.500000 0.500000
v 0.000000 -0.500000 0.500000
v -0.000000 -0.000000 0.500000
v -0.300000 0.230875 0.500000
v 0.300000 -0.230874 0.500000
v -0.300000 -0.230875 0.500000
v 0.300000 0.230874 0.500000
v 0.000000 -0.000000 -0.500000
v -0.000000 0.500000 -0.500000
v -0.000000 -0.500000 -0.500000
v -0.300000 0.230875 -0.500000
v 0.300000 -0.230875 -0.500000
v -0.300000 -0.230875 -0.500000
v 0.300000 0.230875 -0.500000
vn -0.000000 0.000000 -1.000000
vn -0.000000 0.000000 1.000000
vn -1.000000 0.000001 -0.000001
vn -1.000000 0.000000 0.000000
vn 1.000000 -0.000000 0.000000
vn 1.000000 0.000001 0.000001
vn 1.000000 -0.000001 0.000000
vn 1.000000 -0.000000 0.000001
vn 0.667764 -0.744373 0.000000
vn 0.408164 -0.758318 -0.508287
vn -0.408165 -0.758317 -0.508288
vn -0.667765 -0.744372 -0.000000
vn 0.408165 0.758318 -0.508287
vn 0.667765 0.744372 -0.000000
vn 0.408165 -0.758317 0.508287
vn 0.667765 -0.744372 0.000000
vn 0.371624 0.804816 -0.462783
vn 0.609886 0.792489 -0.000000
vn 0.371623 0.804816 0.462782
vn 0.371624 -0.804816 -0.462783
vn 0.609886 -0.792489 -0.000000
vn -0.609886 0.792489 0.000000
vn -0.371623 0.804816 -0.462782
vn -0.371624 0.804815 0.462783
vn -0.609887 0.792489 0.000001
vn 0.371623 -0.804816 0.462782
vn 0.609885 -0.792490 -0.000001
vn -0.667763 -0.744374 -0.000001
vn -0.408164 -0.758319 0.508286
vn 0.408166 -0.758316 0.508289
vn 0.667767 -0.744371 0.000001
vn -0.408164 0.758318 0.508287
vn -0.667764 0.744373 -0.000001
vn 0.408165 0.758317 0.508288
vn 0.667766 0.744371 0.000000
vn 0.609884 0.792491 -0.000000
vn 0.371622 0.804817 0.462781
vn 0.371624 0.804815 -0.462783
vn 0.609887 0.792488 -0.000000
vn 0.473956 0.880548 0.000001
vn 0.473956 0.880549 -0.000000
vn 0.473956 0.880548 -0.000000
vn 0.473957 0.880548 0.000001
vn -0.473956 0.880549 -0.000000
vn -0.473955 0.880549 0.000001
vn 0.473955 -0.880549 -0.000000
vn 0.473956 -0.880548 0.000002
vn 0.473956 -0.880548 -0.000000
vn 0.473958 -0.880548 0.000002
vn -0.473956 -0.880548 -0.000001
vn -0.473955 -0.880549 0.000001
vn -0.473955 -0.880549 -0.000001
vn -0.473954 -0.880549 0.000001
f 21//1 23//1 24//1
f 27//2 21//2 23//2
f 23//2 22//2 25//2
f 23//2 26//2 22//2
f 28//2 29//2 31//2
f 32//1 30//1 28//1
f 29//2 28//2 34//2
f 30//1 33//1 28//1
f 2//1 4//1 11//1
f 6//1 8//1 12//1
f 1//1 3//1 11//1
f 5//2 12//2 7//2
f 6//3 8//3 15//3
f 8//4 18//4 15//4
f 2//4 15//4 18//4
f 2//4 18//4 4//4
f 1//5 16//5 17//5
f 1//6 17//6 3//6
f 5//7 7//7 16//7
f 7//8 17//8 16//8
f 9//9 30//9 32//9
f 9//10 32//10 3//10
f 2//11 33//11 9//11
f 33//12 30//12 9//12
f 10//13 1//13 34//13
f 10//14 34//14 29//14
f 4//15 31//15 10//15
f 31//16 29//16 10//16
f 3//17 32//17 11//17
f 32//18 28//18 11//18
f 11//18 28//18 31//18
f 11//19 31//19 4//19
f 1//20 11//20 34//20
f 11//21 28//21 34//21
f 11//22 28//22 33//22
f 11//23 33//23 2//23
f 6//24 26//24 12//24
f 26//25 23//25 12//25
f 12//26 5//26 27//26
f 12//27 27//27 23//27
f 13//28 22//28 26//28
f 13//29 26//29 6//29
f 7//30 25//30 13//30
f 25//31 22//31 13//31
f 14//32 8//32 24//32
f 14//33 24//33 21//33
f 5//34 14//34 27//34
f 14//35 21//35 27//35
f 12//36 23//36 25//36
f 12//37 25//37 7//37
f 8//38 24//38 12//38
f 24//39 23//39 12//39
f 16//40 1//40 20//40
f 1//41 10//41 20//41
f 20//42 14//42 16//42
f 14//43 5//43 16//43
f 4//44 18//44 10//44
f 18//44 20//44 10//44
f 18//44 8//44 20//44
f 8//45 14//45 20//45
f 9//46 3//46 19//46
f 3//47 17//47 19//47
f 19//48 17//48 13//48
f 17//49 7//49 13//49
f 2//50 9//50 15//50
f 9//51 19//51 15//51
f 15//52 19//52 6//52
f 19//53 13//53 6//53
