v 0.500000 0.230875 -0.339396
v -0.500000 -0.230875 -0.339396
v 0.500000 -0.230875 -0.339396
v -0.500000 0.230875 -0.339396
v 0.500000 0.230874 0.339396
v -0.500000 -0.230875 0.339396
v 0.499999 -0.230874 0.339396
v -0.500000 0.230875 0.339396
v -0.000000 -0.500000 -0.339396
v -0.000000 0.500000 -0.339396
v 0.000000 -0.000000 -0.339396
v -0.000000 -0.000000 0.339396
v 0.000001 -0.500000 0.339396
v 0.000000 0.500000 0.339396
v -0.500000 -0.230875 -0.000000
v 0.500000 0.230875 -0.000000
v 0.500000 -0.230874 0.000000
v -0.500000 0.230875 0.000000
v -0.000000 -0.000000 -0.000000
v 0.000000 -0.500000 0.000000
v 0.000000 0.500000 0.000000
v 0.000000 0.500000 0.500000
v 0.000000 -0.500000 0.500000
v -0.000000 -0.000000 0.500000
v -0.300000 0.230875 0.500000
v 0.300000 -0.230874 0.500000
v -0.300000 -0.230875 0.500000
v 0.300000 0.230874 0.500000
v 0.000000 -0.000000 -0.500000
v -0.000000 0.500000 -0.500000
v -0.000000 -0.500000 -0.500000
v -0.300000 0.230875 -0.500000
v 0.300000 -0.230875 -0.500000
v -0.300000 -0.230875 -0.500000
v 0.300000 0.230875 -0.500000
vn 0.000000 0.819391 0.573199
vn -0.034974 0.885830 0.462661
vn 0.586169 0.761650 0.276101
vn 0.642354 -0.018403 0.766167
vn 0.000000 -0.819391 0.573199
vn 0.642354 0.018403 0.766167
vn -0.642354 0.018403 0.766167
vn 0.586169 0.761650 -0.276101
vn -0.034974 0.885830 -0.462661
vn 0.000000 0.819391 -0.573199
vn 0.642354 0.018403 -0.766167
vn 0.000000 -0.819391 -0.573199
vn 0.642354 -0.018403 -0.766167
vn -0.642354 0.018403 -0.766167
vn -0.720206 -0.113834 -0.684317
vn -0.418012 0.799676 -0.430952
vn 0.561571 0.785089 -0.261208
vn -0.719474 -0.115940 0.684744
vn 0.561571 0.785089 0.261208
vn -0.420331 0.799249 0.429518
vn -0.931669 -0.189184 -0.310068
vn -0.931669 0.189184 -0.310068
vn 0.000000 0.000000 -1.000000
vn 0.720573 0.115726 -0.683615
vn 0.719474 -0.115940 -0.684744
vn 0.931669 0.189184 -0.310068
vn 0.931669 -0.189184 -0.310068
vn 0.719108 0.114017 0.685446
vn 0.720206 -0.113834 0.684317
vn -0.001099 -0.988586 -0.150639
vn -0.001099 0.988586 -0.150639
vn 0.001099 -0.988586 0.150639
vn 0.001099 0.988586 0.150639
vn 0.000000 1.000000 0.000000
vn 0.000000 -1.000000 0.000000
f 22//1 25//2 24//3
f 28//4 22//1 24//3
f 24//3 23//5 26//6
f 24//3 27//7 23//5
f 29//8 32//9 30//10
f 33//11 31//12 29//8
f 30//10 35//13 29//8
f 31//12 34//14 29//8
f 2//15 4//16 11//17
f 6//18 12//19 8//20
f 15//21 18//22 19//23
f 1//24 3//25 11//17
f 16//26 17//27 19//23
f 5//28 12//19 7//29
f 1//24 16//26 17//27
f 1//24 17//27 3//25
f 5//28 7//29 16//26
f 7//29 17//27 16//26
f 6//18 8//20 15//21
f 8//20 18//22 15//21
f 2//15 15//21 18//22
f 2//15 18//22 4//16
f 9//30 31//12 33//11
f 9//30 33//11 3//25
f 2//15 34//14 9//30
f 34//14 31//12 9//30
f 10//31 1//24 35//13
f 10//31 35//13 30//10
f 4//16 10//31 32//9
f 10//31 30//10 32//9
f 3//25 33//11 11//17
f 33//11 29//8 11//17
f 11//17 29//8 32//9
f 11//17 32//9 4//16
f 1//24 11//17 35//13
f 11//17 29//8 35//13
f 11//17 29//8 34//14
f 11//17 34//14 2//15
f 6//18 27//7 12//19
f 27//7 24//3 12//19
f 12//19 5//28 28//4
f 12//19 28//4 24//3
f 13//32 23//5 27//7
f 13//32 27//7 6//18
f 7//29 26//6 13//32
f 26//6 23//5 13//32
f 14//33 8//20 25//2
f 14//33 25//2 22//1
f 5//28 14//33 28//4
f 14//33 22//1 28//4
f 12//19 24//3 26//6
f 12//19 26//6 7//29
f 8//20 25//2 12//19
f 25//2 24//3 12//19
f 16//26 1//24 21//34
f 1//24 10//31 21//34
f 21//34 14//33 16//26
f 14//33 5//28 16//26
f 4//16 18//22 10//31
f 18//22 21//34 10//31
f 18//22 8//20 21//34
f 8//20 14//33 21//34
f 9//30 3//25 20//35
f 3//25 17//27 20//35
f 20//35 17//27 13//32
f 17//27 7//29 13//32
f 2//15 9//30 15//21
f 9//30 20//35 15//21
f 15//21 20//35 6//18
f 20//35 13//32 6//18
